<?xml version="1.0" encoding="UTF-8" standalone="no"?>
<?xml-stylesheet href="tmp.k4dA4Daq5b.css" type="text/css"?>
<svg viewBox="-74.46483 -131.37032 148.92966 262.74063 " width="148.93pt" xmlns="http://www.w3.org/2000/svg" xmlns:xlink="http://www.w3.org/1999/xlink" height="262.74pt">
 <g transform="translate(0 131.37) scale(1 -1) translate(0 131.37)">
  <g stroke="#000">
   <g>
    <g stroke-width=".4pt">
     <g transform="translate(71.132 128.04)">
      <g>
       <text transform="scale(1 -1) translate(0)" text-anchor="middle" font-size="10"></text>
      </g>
     </g>
     <g transform="translate(-71.132 -128.04)">
      <g>
       <text transform="scale(1 -1) translate(0)" text-anchor="middle" font-size="10"></text>
      </g>
     </g>
     <g transform="translate(-10.556 110.47)">
      <g>
       <text transform="scale(1 -1) translate(10.556)" text-anchor="middle" font-size="10">i32 2</text>
      </g>
     </g>
     <path d="m8.0461 85.358c0 4.444-3.6023 8.046-8.0461 8.046s-8.0461-3.602-8.0461-8.046 3.6023-8.046 8.0461-8.046 8.0461 3.602 8.0461 8.046zm-8.0461 0" fill="none"/>
     <g transform="translate(-2.6389 83.205)">
      <g>
       <text transform="scale(1 -1) translate(2.6389)" text-anchor="middle" font-size="10">x</text>
      </g>
     </g>
     <path d="m-38.452 49.545h19.999v14.722h-19.999z" fill="none"/>
     <g transform="translate(-35.119 53.433)">
      <g>
       <text transform="scale(1 -1) translate(6.6667)" text-anchor="middle" font-size="10">%0</text>
      </g>
     </g>
     <g stroke="#7f7f7f">
      <g fill="#7f7f7f">
       <g stroke-dasharray="3.0pt,3.0pt" stroke-dashoffset="0pt">
        <g transform="translate(-67.461 53.566)">
         <g fill="#7f7f7f">
          <text transform="scale(1 -1) translate(10.556)" text-anchor="middle" font-size="10">i32 3</text>
         </g>
        </g>
        <path d="m-44.008 21.092h31.11v14.722h-31.11z" fill="none"/>
        <g transform="translate(-40.675 24.981)">
         <g fill="#7f7f7f">
          <text transform="scale(1 -1) translate(12.222)" text-anchor="middle" font-size="10">%add</text>
         </g>
        </g>
       </g>
      </g>
     </g>
     <path d="m8.0461 0c0 4.4438-3.6023 8.0461-8.0461 8.0461s-8.0461-3.6023-8.0461-8.0461 3.6023-8.0461 8.0461-8.0461 8.0461 3.6023 8.0461 8.0461zm-8.0461 0" fill="none"/>
     <g transform="translate(-2.6389 -2.1528)">
      <g>
       <text transform="scale(1 -1) translate(2.6389)" text-anchor="middle" font-size="10">x</text>
      </g>
     </g>
     <path d="m-38.452-35.813h19.999v14.722h-19.999z" fill="none"/>
     <g transform="translate(-35.119 -31.925)">
      <g>
       <text transform="scale(1 -1) translate(6.6667)" text-anchor="middle" font-size="10">%2</text>
      </g>
     </g>
     <path d="m-66.905-35.813h19.999v14.722h-19.999z" fill="none"/>
     <g transform="translate(-63.572 -31.925)">
      <g>
       <text transform="scale(1 -1) translate(6.6667)" text-anchor="middle" font-size="10">%1</text>
      </g>
     </g>
     <path d="m-44.147-64.266h31.388v14.722h-31.388z" fill="none"/>
     <g transform="translate(-40.814 -60.378)">
      <g>
       <text transform="scale(1 -1) translate(12.361)" text-anchor="middle" font-size="10">%mul</text>
      </g>
     </g>
     <path d="m8.0461-85.358c0 4.444-3.6023 8.046-8.0461 8.046s-8.0461-3.602-8.0461-8.046 3.6023-8.046 8.0461-8.046 8.0461 3.602 8.0461 8.046zm-8.0461 0" fill="none"/>
     <g transform="translate(-2.6389 -87.511)">
      <g>
       <text transform="scale(1 -1) translate(2.6389)" text-anchor="middle" font-size="10">x</text>
      </g>
     </g>
     <path d="m-66.905-121.17h19.999v14.722h-19.999z" fill="none"/>
     <g transform="translate(-63.572 -117.28)">
      <g>
       <text transform="scale(1 -1) translate(6.6667)" text-anchor="middle" font-size="10">%3</text>
      </g>
     </g>
     <g transform="translate(-12.236 -116.31)">
      <g>
       <text transform="scale(1 -1) translate(12.236)" text-anchor="middle" font-size="10">printf</text>
      </g>
     </g>
     <g stroke-width=".8pt">
      <path d="m0 106.94v-12.626" fill="none"/>
      <g transform="matrix(0 -1 1 0 0 94.314)">
       <g stroke-width=".64pt">
        <g stroke-dashoffset="0pt">
         <g stroke-linecap="round">
          <g stroke-linejoin="round">
           <path d="m-1.56 2.08c0.13-0.78 1.56-1.95 1.95-2.08-0.39-0.12999-1.82-1.3-1.95-2.08" fill="none"/>
          </g>
         </g>
        </g>
       </g>
      </g>
     </g>
     <g stroke-width=".8pt">
      <path d="m-8.2461 85.358c-10.921-3.122-17.45-9.873-20.034-20.203" fill="none"/>
      <g transform="matrix(-.24268 -.97014 .97014 -.24268 -28.28 65.155)">
       <g stroke-width=".64pt">
        <g stroke-dashoffset="0pt">
         <g stroke-linecap="round">
          <g stroke-linejoin="round">
           <path d="m-1.56 2.08c0.13-0.78 1.56-1.95 1.95-2.08-0.39-0.12999-1.82-1.3-1.95-2.08" fill="none"/>
          </g>
         </g>
        </g>
       </g>
      </g>
     </g>
     <g stroke="#7f7f7f">
      <g fill="#7f7f7f">
       <g stroke-dasharray="3.0pt,3.0pt" stroke-dashoffset="0pt">
        <g stroke-width=".8pt">
         <path d="m-28.453 49.345v-12.621" fill="none"/>
         <g transform="matrix(0 -1 1 0 -28.453 36.724)">
          <g stroke-width=".64pt">
           <g stroke-dasharray="none" stroke-dashoffset="0pt">
            <g stroke-linecap="round">
             <g stroke-linejoin="round">
              <path d="m-1.56 2.08c0.13-0.78 1.56-1.95 1.95-2.08-0.39-0.12999-1.82-1.3-1.95-2.08" fill="none"/>
             </g>
            </g>
           </g>
          </g>
         </g>
        </g>
        <g stroke-width=".8pt">
         <path d="m-56.905 50.033c0.08-9.778 4.189-16.761 12.078-21.229" fill="none"/>
         <g transform="matrix(.87251 -.49422 .49422 .87251 -44.827 28.804)">
          <g stroke-width=".64pt">
           <g stroke-dasharray="none" stroke-dashoffset="0pt">
            <g stroke-linecap="round">
             <g stroke-linejoin="round">
              <path d="m-1.56 2.08c0.13-0.78 1.56-1.95 1.95-2.08-0.39-0.12999-1.82-1.3-1.95-2.08" fill="none"/>
             </g>
            </g>
           </g>
          </g>
         </g>
        </g>
        <g stroke-width=".8pt">
         <path d="m-28.453 20.892c2.757-11.019 9.286-17.77 19.523-20.697" fill="none"/>
         <g transform="matrix(.96297 -.27531 .27531 .96297 -8.9298 .19547)">
          <g stroke-width=".64pt">
           <g stroke-dasharray="none" stroke-dashoffset="0pt">
            <g stroke-linecap="round">
             <g stroke-linejoin="round">
              <path d="m-1.56 2.08c0.13-0.78 1.56-1.95 1.95-2.08-0.39-0.12999-1.82-1.3-1.95-2.08" fill="none"/>
             </g>
            </g>
           </g>
          </g>
         </g>
        </g>
       </g>
      </g>
     </g>
     <g stroke-width=".8pt">
      <path d="m-18.253 56.905c15.654-12.876 21.577-28.664 18.37-47.958" fill="none"/>
      <g transform="matrix(-.16412 -.98744 .98744 -.16412 .11652 8.9472)">
       <g stroke-width=".64pt">
        <g stroke-dashoffset="0pt">
         <g stroke-linecap="round">
          <g stroke-linejoin="round">
           <path d="m-1.56 2.08c0.13-0.78 1.56-1.95 1.95-2.08-0.39-0.12999-1.82-1.3-1.95-2.08" fill="none"/>
          </g>
         </g>
        </g>
       </g>
      </g>
     </g>
     <g stroke-width=".8pt">
      <path d="m-8.2461 0c-20.59 2.4418-36.25-4.2818-48.233-20.321" fill="none"/>
      <g transform="matrix(-.60056 -.80383 .80383 -.60056 -56.479 -20.321)">
       <g stroke-width=".64pt">
        <g stroke-dashoffset="0pt">
         <g stroke-linecap="round">
          <g stroke-linejoin="round">
           <path d="m-1.56 2.08c0.13-0.78 1.56-1.95 1.95-2.08-0.39-0.12999-1.82-1.3-1.95-2.08" fill="none"/>
          </g>
         </g>
        </g>
       </g>
      </g>
     </g>
     <g stroke-width=".8pt">
      <path d="m-8.2461 0c-10.921-3.1223-17.45-9.8728-20.034-20.203" fill="none"/>
      <g transform="matrix(-.24268 -.97014 .97014 -.24268 -28.28 -20.203)">
       <g stroke-width=".64pt">
        <g stroke-dashoffset="0pt">
         <g stroke-linecap="round">
          <g stroke-linejoin="round">
           <path d="m-1.56 2.08c0.13-0.78 1.56-1.95 1.95-2.08-0.39-0.12999-1.82-1.3-1.95-2.08" fill="none"/>
          </g>
         </g>
        </g>
       </g>
      </g>
     </g>
     <g stroke-width=".8pt">
      <path d="m-28.453-36.013v-12.622" fill="none"/>
      <g transform="matrix(0 -1 1 0 -28.453 -48.635)">
       <g stroke-width=".64pt">
        <g stroke-dashoffset="0pt">
         <g stroke-linecap="round">
          <g stroke-linejoin="round">
           <path d="m-1.56 2.08c0.13-0.78 1.56-1.95 1.95-2.08-0.39-0.12999-1.82-1.3-1.95-2.08" fill="none"/>
          </g>
         </g>
        </g>
       </g>
      </g>
     </g>
     <g stroke-width=".8pt">
      <path d="m-56.905-36.013c0.168-9.521 4.229-16.278 11.936-20.548" fill="none"/>
      <g transform="matrix(.87622 -.48552 .48552 .87622 -44.969 -56.561)">
       <g stroke-width=".64pt">
        <g stroke-dashoffset="0pt">
         <g stroke-linecap="round">
          <g stroke-linejoin="round">
           <path d="m-1.56 2.08c0.13-0.78 1.56-1.95 1.95-2.08-0.39-0.12999-1.82-1.3-1.95-2.08" fill="none"/>
          </g>
         </g>
        </g>
       </g>
      </g>
     </g>
     <g stroke-width=".8pt">
      <path d="m-28.453-64.466c2.757-11.019 9.286-17.77 19.523-20.697" fill="none"/>
      <g transform="matrix(.96297 -.27531 .27531 .96297 -8.9298 -85.163)">
       <g stroke-width=".64pt">
        <g stroke-dashoffset="0pt">
         <g stroke-linecap="round">
          <g stroke-linejoin="round">
           <path d="m-1.56 2.08c0.13-0.78 1.56-1.95 1.95-2.08-0.39-0.12999-1.82-1.3-1.95-2.08" fill="none"/>
          </g>
         </g>
        </g>
       </g>
      </g>
     </g>
     <g stroke-width=".8pt">
      <path d="m-8.2461-85.358c-20.59 2.442-36.25-4.282-48.233-20.322" fill="none"/>
      <g transform="matrix(-.60056 -.80383 .80383 -.60056 -56.479 -105.68)">
       <g stroke-width=".64pt">
        <g stroke-dashoffset="0pt">
         <g stroke-linecap="round">
          <g stroke-linejoin="round">
           <path d="m-1.56 2.08c0.13-0.78 1.56-1.95 1.95-2.08-0.39-0.12999-1.82-1.3-1.95-2.08" fill="none"/>
          </g>
         </g>
        </g>
       </g>
      </g>
     </g>
     <g stroke-width=".8pt">
      <path d="m-46.706-113.81h30.227" fill="none"/>
      <g transform="translate(-16.479 -113.81)">
       <g stroke-width=".64pt">
        <g stroke-dashoffset="0pt">
         <g stroke-linecap="round">
          <g stroke-linejoin="round">
           <path d="m-1.56 2.08c0.13-0.78 1.56-1.95 1.95-2.08-0.39-0.12999-1.82-1.3-1.95-2.08" fill="none"/>
          </g>
         </g>
        </g>
       </g>
      </g>
     </g>
    </g>
   </g>
  </g>
 </g>
</svg>
